<?xml version="1.0" encoding="UTF-8"?>
<svg xmlns="http://www.w3.org/2000/svg" id="Layer_1" data-name="Layer 1" viewBox="0 0 24 24">
  <path d="m22.143,1.657L17.593.134c-.515-.172-1.06-.181-1.552-.029l-7.187,1.826c-.317.097-.653.091-.944-.006L3.588.202C2.786-.133,1.876-.043,1.154.437.432.918,0,1.725,0,2.593v19.202l8.497,2.221,8.005-2.001,7.498,1.812V4.142c0-1.151-.772-2.175-1.857-2.485Zm-6.143-.51v19.963l-7,1.75V2.928c.045-.011,7-1.781,7-1.781ZM1,2.593c0-.542.259-1.024.709-1.324.45-.3.995-.351,1.501-.141l4.355,1.736c.143.048.288.084.435.106v19.882l-7-1.829V2.593Zm22,19.963l-6-1.45V1.017c.092.014,4.846,1.595,4.846,1.595.68.194,1.154.823,1.154,1.53v18.415Z"/>
</svg>
