<svg xmlns="http://www.w3.org/2000/svg" id="Layer_1" data-name="Layer 1" viewBox="0 0 24 24" width="512" height="512">
  <path d="M 20.096 5.389 L 16.612 1.905 C 15.384 0.677 13.752 0.001 12.015 0.001 L 6.5 0.001 C 4.019 0 2 2.019 2 4.5 L 2 19.5 C 2 21.981 4.019 24 6.5 24 L 17.5 24 C 19.981 24 22 21.981 22 19.5 L 22 9.985 C 22 8.249 21.323 6.616 20.096 5.388 L 20.096 5.389 Z M 19.389 6.096 C 19.94 6.647 20.36 7.295 20.633 8 L 15.501 8 C 14.674 8 14.001 7.327 14.001 6.5 L 14.001 1.368 C 14.707 1.641 15.354 2.061 15.905 2.612 L 19.389 6.096 Z M 21 19.5 C 21 21.43 19.43 23 17.5 23 L 6.5 23 C 4.57 23 3 21.43 3 19.5 L 3 4.5 C 3 2.57 4.57 1 6.5 1 L 12.015 1 C 12.349 1 12.678 1.03 13 1.088 L 13 6.5 C 13 7.879 14.121 9 15.5 9 L 20.912 9 C 20.97 9.322 21 9.651 21 9.985 L 21 19.5 Z"></path>
  <ellipse style="stroke: rgb(0, 0, 0); fill: none;" cx="9.25" cy="17" rx="1.688" ry="1.688"></ellipse> <ellipse style="stroke: rgb(0, 0, 0); fill: none;" cx="9.25" cy="12" rx="1.688" ry="1.688"></ellipse> <ellipse style="stroke: rgb(0, 0, 0); fill: none;" cx="15" cy="17" rx="1.688" ry="1.688"></ellipse>
</svg>
